<svg xmlns="http://www.w3.org/2000/svg" width="128" height="128" viewBox="0 0 128 128">
  <g fill="none" fill-rule="evenodd">
    <rect width="128" height="128" fill="#EDEDED" rx="16"/>
    <g fill="#764ABC" fill-rule="nonzero" transform="translate(45.406 46.008)">
      <path d="M49.8916139,47.8813291 C52.5415348,47.6071994 54.5518196,45.3227848 54.460443,42.5814873 C54.3690665,39.8401899 52.0846519,37.6471519 49.3433544,37.6471519 L49.1606013,37.6471519 C46.3279272,37.7385285 44.1348892,40.1143196 44.2262658,42.9469937 C44.3176424,44.3176424 44.8659019,45.505538 45.6882911,46.3279272 C42.5814873,52.4501582 37.8299051,56.9276108 30.7025316,60.6740506 C25.8595728,63.2325949 20.8338608,64.1463608 15.8081487,63.5067247 C11.6962025,62.9584652 8.49802215,61.1309335 6.48773734,58.1155063 C3.56368671,53.6380538 3.28955696,48.7950949 5.75672468,43.9521361 C7.49287975,40.4798259 10.2341772,37.9212816 11.9703323,36.6420095 C11.6048259,35.4541139 11.0565665,33.4438291 10.7824367,31.9818038 C-2.46716772,41.5763449 -1.09651899,54.5518196 2.92405063,60.6740506 C5.93947785,65.2428797 12.0617089,68.0755538 18.8235759,68.0755538 C20.6511076,68.0755538 22.4786392,67.8928006 24.3061709,67.4359177 C36.0023734,65.1515032 44.8659019,58.2068829 49.8916139,47.8813291 L49.8916139,47.8813291 Z"/>
      <path d="M65.9738924,36.5506329 C59.0292722,28.4181171 48.7950949,23.9406646 37.0988924,23.9406646 L35.6368671,23.9406646 C34.8144778,22.2958861 33.0783228,21.1993671 31.1594146,21.1993671 L30.9766614,21.1993671 C28.1439873,21.2907437 25.9509494,23.6665348 26.0423259,26.4992089 C26.1337025,29.2405063 28.4181171,31.4335443 31.1594146,31.4335443 L31.3421677,31.4335443 C33.3524525,31.3421677 35.0886076,30.0628956 35.8196203,28.3267405 L37.4643987,28.3267405 C44.409019,28.3267405 50.9881329,30.3370253 56.9276108,34.2662184 C61.4964399,37.2816456 64.7859968,41.2108386 66.6135285,45.9624209 C68.1669304,49.8002373 68.0755538,53.5466772 66.4307753,56.7448576 C63.872231,61.5878165 59.5775316,64.2377373 53.9121835,64.2377373 C50.2571203,64.2377373 46.7848101,63.1412184 44.9572785,62.3188291 C43.9521361,63.2325949 42.1246044,64.6946203 40.8453323,65.6083861 C44.7745253,67.4359177 48.7950949,68.4410601 52.6329114,68.4410601 C61.4050633,68.4410601 67.8928006,63.5981013 70.3599684,58.7551424 C73.0098892,53.4553006 72.8271361,44.3176424 65.9738924,36.5506329 Z"/>
      <path d="M19.5545886,49.434731 C19.6459652,52.1760285 21.9303797,54.3690665 24.6716772,54.3690665 L24.8544304,54.3690665 C27.6871044,54.2776899 29.8801424,51.9018987 29.7887658,49.0692247 C29.6973892,46.3279272 27.4129747,44.1348892 24.6716772,44.1348892 L24.4889241,44.1348892 C24.3061709,44.1348892 24.0320411,44.1348892 23.849288,44.2262658 C20.1028481,38.0126582 18.5494462,31.2507911 19.0977057,23.9406646 C19.463212,18.4580696 21.2907437,13.7064873 24.4889241,9.7772943 C27.1388449,6.39636076 32.2559335,4.75158228 35.7282437,4.6602057 C45.4141614,4.47745253 49.5261076,16.5391614 49.8002373,21.3821203 C50.9881329,21.65625 52.9984177,22.2958861 54.3690665,22.752769 C53.2725475,7.94976266 44.1348892,0.274129747 35.3627373,0.274129747 C27.1388449,0.274129747 19.5545886,6.21360759 16.5391614,14.9857595 C12.3358386,26.681962 15.0771361,37.9212816 20.1942247,46.7848101 C19.7373418,47.4244462 19.463212,48.4295886 19.5545886,49.434731 L19.5545886,49.434731 Z"/>
    </g>
    <circle cx="46.5" cy="46.5" r="38.5" fill="#EDEDED"/>
    <g transform="translate(10.406 14.016)">
      <ellipse cx="36.446" cy="32.311" fill="#00D8FF" fill-rule="nonzero" rx="6.66" ry="6.66"/>
      <path stroke="#00D8FF" stroke-width="2.304" d="M36.4460914,18.7691483 C45.388181,18.7691483 53.6951534,20.0522603 59.9585724,22.2085259 C67.5051034,24.8064793 72.1450172,28.744631 72.1450172,32.3105276 C72.1450172,36.0265741 67.2275052,40.2100638 59.1236534,42.8951069 C52.9967103,44.925119 44.9345448,45.9846655 36.4460914,45.9846655 C27.7432328,45.9846655 19.5021086,44.9900379 13.3075914,42.8726707 C5.46872586,40.1933362 0.747165517,35.9555483 0.747165517,32.3105276 C0.747165517,28.7735724 5.17732069,24.8659552 12.6177776,22.2718517 C18.9045621,20.0801397 27.4166466,18.7691483 36.4460914,18.7691483 Z"/>
      <path stroke="#00D8FF" stroke-width="2.304" d="M24.6580552,25.578869 C29.12525,17.832669 34.3867397,11.2775793 39.3836414,6.92893793 C45.4042448,1.68948621 51.1337086,-0.362563793 54.2227362,1.41879138 C57.4418672,3.27515517 58.6093466,9.62513276 56.8868034,17.9865362 C55.5844414,24.3082362 52.4747034,31.8215776 48.2341276,39.1749448 C43.8864155,46.7140414 38.9078345,53.3560879 33.9789052,57.6645034 C27.7417724,63.1166345 21.7120086,65.0895603 18.5543448,63.2686431 C15.4904086,61.5016259 14.3185483,55.7118897 15.7884517,47.970469 C17.0304086,41.4294517 20.1471828,33.4008741 24.6580552,25.578869 Z"/>
      <path stroke="#00D8FF" stroke-width="2.304" d="M24.6693397,39.1945931 C20.1892672,31.4558276 17.1378103,23.6237328 15.86585,17.1228086 C14.3332845,9.29018276 15.4168603,3.30144138 18.5029672,1.51490862 C21.7189121,-0.346898276 27.8033724,1.81281897 34.1870707,7.48108103 C39.0136431,11.7665293 43.9697879,18.2128897 48.2227103,25.5592207 C52.5830345,33.0910155 55.8511534,40.72145 57.1223172,47.1433828 C58.7309534,55.2699362 57.4288569,61.4791897 54.2742466,63.3054172 C51.213231,65.0774793 45.6118793,63.2013345 39.639069,58.0615845 C34.5925155,53.7189172 29.1933552,47.009031 24.6693397,39.1945931 Z"/>
    </g>
  </g>
</svg>
